<?xml version="1.0" encoding="utf-8"?>
<!-- Generator: Adobe Illustrator 18.1.1, SVG Export Plug-In . SVG Version: 6.00 Build 0)  -->
<!DOCTYPE svg PUBLIC "-//W3C//DTD SVG 1.1//EN" "http://www.w3.org/Graphics/SVG/1.1/DTD/svg11.dtd">
<svg version="1.1" id="Layer_1" xmlns="http://www.w3.org/2000/svg" xmlns:xlink="http://www.w3.org/1999/xlink" x="0px" y="0px"
	 width="612px" height="792px" viewBox="0 0 612 792" style="enable-background:new 0 0 612 792;" xml:space="preserve">
<style type="text/css">
	.st0{fill:#FFFFFF;}
	.st1{fill:#3A579D;}
</style>
<g>
	<path class="st0" d="M322.4,419.4h-32.7c-3.5,0-6.3-2.8-6.3-6.3v-33.2c0-3.5,2.8-6.3,6.3-6.3h32.7c3.5,0,6.3,2.8,6.3,6.3V413
		C328.7,416.5,325.9,419.4,322.4,419.4z"/>
	<g>
		<g>
			<path class="st1" d="M322.2,416.8h-32.6c-2.2,0-4-1.8-4-4v-32.6c0-2.2,1.8-4,4-4h32.6c2.2,0,4,1.8,4,4v32.6
				C326.2,415,324.4,416.8,322.2,416.8z"/>
		</g>
		<path class="st0" d="M307.2,416.9v-15.7h-5.3v-6.1h5.3c0,0-0.1-6.6,0.3-6.8c0,0,0.5-3.6,4.3-5.3c0,0,1.8-0.9,8.1-0.3v5.4
			c0,0-4.3,0-4.3,0.1c0,0-1.9,0.2-1.9,2.4v4.4h6l-0.7,6.1h-5.2v15.7H307.2z"/>
	</g>
</g>
<g>
</g>
<g>
</g>
<g>
</g>
<g>
</g>
<g>
</g>
<g>
</g>
<g>
</g>
<g>
</g>
<g>
</g>
<g>
</g>
<g>
</g>
<g>
</g>
<g>
</g>
<g>
</g>
<g>
</g>
</svg>
