<svg xmlns="http://www.w3.org/2000/svg" width="273.9" height="245.8" viewBox="0 0 273.9 245.8"><style type="text/css">.st0{fill:#C49B6C;} .st1{fill:#FBFFDA;stroke:#003300;stroke-width:3.3629;stroke-miterlimit:10;} .st2{fill:#7CB228;} .st3{fill:#F7941E;} .st4{fill:#0C0C0C;}</style><path class="st0" d="M223.6 20l-191.1 120.1s-3.7 2.4-1.6-2.4l181.3-126.6s10.4-.2 11.4 8.9z"/><ellipse transform="matrix(-.981 -.193 .193 -.981 123.812 269.597)" class="st1" cx="75" cy="128.8" rx="36.3" ry="33.4"/><path class="st2" d="M85.5 128.4c-1.8 9-10.1 15.2-19.6 15.3 2.5 1.8 5.5 3.2 8.8 3.8 11.3 2.2 22.1-4.4 24.2-14.9s-5.5-20.7-16.8-22.9c-1.6-.3-3.1-.4-4.6-.4 6.1 4.4 9.4 11.7 8 19.1z"/><path class="st3" d="M68.9 126.8c-7.5 3.8-16.5 1.6-22.3-4.8.3 2.5 1 4.9 2.2 7.3 5 9.9 16.4 14.2 25.6 9.6 9.2-4.6 12.5-16.4 7.6-26.3-.9-1.8-2-3.4-3.3-4.9.8 8-2.9 15.6-9.8 19.1z"/><ellipse transform="matrix(-.981 -.193 .193 -.981 198.462 292.976)" class="st1" cx="113.5" cy="136.8" rx="36.3" ry="33.4"/><path class="st2" d="M123.9 136.5c-1.8 9-10.1 15.2-19.6 15.3 2.5 1.8 5.5 3.2 8.8 3.8 11.3 2.2 22.1-4.4 24.2-14.9 2.1-10.4-5.5-20.7-16.8-22.9-1.6-.3-3.1-.4-4.6-.4 6.1 4.4 9.5 11.7 8 19.1z"/><path class="st3" d="M107.3 134.9c-7.5 3.8-16.5 1.6-22.3-4.8.3 2.5 1 4.9 2.2 7.3 5 9.9 16.4 14.2 25.6 9.6 9.2-4.6 12.5-16.4 7.6-26.3-.9-1.8-2-3.4-3.3-4.9.8 7.9-2.8 15.6-9.8 19.1z"/><ellipse transform="matrix(-.981 -.193 .193 -.981 268.416 236.723)" class="st1" cx="145.7" cy="105.3" rx="36.3" ry="33.4"/><path class="st2" d="M156.2 104.9c-1.8 9-10.1 15.2-19.6 15.3 2.5 1.8 5.5 3.2 8.8 3.8 11.3 2.2 22.1-4.4 24.2-14.9s-5.5-20.7-16.8-22.9c-1.6-.3-3.1-.4-4.6-.4 6.1 4.5 9.4 11.8 8 19.1z"/><path class="st3" d="M139.6 103.3c-7.5 3.8-16.5 1.6-22.3-4.8.3 2.5 1 4.9 2.2 7.3 5 9.9 16.4 14.2 25.6 9.6 9.2-4.6 12.5-16.4 7.6-26.3-.9-1.8-2-3.4-3.3-4.9.8 8-2.9 15.6-9.8 19.1z"/><path class="st0" d="M266.1 40.4l-234.4 106.1s-3.4-.8-1.5-3.7l226.4-112.8s8.2 4.2 9.5 10.4z"/><path class="st4" d="M38.6 183.9h7.1v12.5h13.2v-12.5h7.1v32.5h-7.1v-14h-13.2v14h-7.1v-32.5zM86.8 183.1c10.1 0 16 7.5 16 17.2 0 9.4-5.9 16.9-16 16.9s-16-7.5-16-16.9c.1-9.7 6-17.2 16-17.2zm0 28c6.4 0 8.8-5.5 8.8-10.9 0-5.7-2.4-11.1-8.8-11.1s-8.8 5.5-8.8 11.1c0 5.5 2.4 10.9 8.8 10.9zM107.7 183.9h10.1l7.6 22.3h.1l7.2-22.3h10.1v32.5h-6.8v-23h-.1l-8 23h-5.5l-8-22.8h-.1v22.8h-6.7v-32.5zM149 183.9h24.3v6h-17.2v7h15.7v5.6h-15.7v8h17.5v6h-24.6v-32.6z"/></svg>