<?xml version="1.0" encoding="utf-8"?>
<!-- Generator: Adobe Illustrator 18.1.1, SVG Export Plug-In . SVG Version: 6.00 Build 0)  -->
<!DOCTYPE svg PUBLIC "-//W3C//DTD SVG 1.1//EN" "http://www.w3.org/Graphics/SVG/1.1/DTD/svg11.dtd">
<svg version="1.1" id="Layer_1" xmlns="http://www.w3.org/2000/svg" xmlns:xlink="http://www.w3.org/1999/xlink" x="0px" y="0px"
	 width="273.9px" height="189.3px" viewBox="0 0 273.9 189.3" style="enable-background:new 0 0 273.9 189.3;" xml:space="preserve"
	>
<style type="text/css">
	.st0{fill:#0C0C0C;stroke:#000000;stroke-width:1.1762;stroke-miterlimit:10;}
	.st1{fill:#C49B6C;}
	.st2{fill:#FBFFDA;stroke:#003300;stroke-width:3.3629;stroke-miterlimit:10;}
	.st3{fill:#7CB228;}
	.st4{fill:#F7941E;}
	.st5{fill:#FFFFFF;}
</style>
<rect x="0" y="0" class="st0" width="273.9" height="245.8"/>
<g>
	<path class="st1" d="M223.6,20L32.5,140.1c0,0-3.7,2.4-1.6-2.4L212.2,11.1C212.2,11.1,222.6,10.9,223.6,20z"/>
	<g>
		
			<ellipse transform="matrix(-0.9812 -0.1929 0.1929 -0.9812 123.8117 269.5968)" class="st2" cx="75" cy="128.8" rx="36.3" ry="33.4"/>
		<g>
			<path class="st3" d="M85.5,128.4c-1.8,9-10.1,15.2-19.6,15.3c2.5,1.8,5.5,3.2,8.8,3.8c11.3,2.2,22.1-4.4,24.2-14.9
				s-5.5-20.7-16.8-22.9c-1.6-0.3-3.1-0.4-4.6-0.4C83.6,113.7,86.9,121,85.5,128.4z"/>
			<path class="st4" d="M68.9,126.8c-7.5,3.8-16.5,1.6-22.3-4.8c0.3,2.5,1,4.9,2.2,7.3c5,9.9,16.4,14.2,25.6,9.6
				c9.2-4.6,12.5-16.4,7.6-26.3c-0.9-1.8-2-3.4-3.3-4.9C79.5,115.7,75.8,123.3,68.9,126.8z"/>
		</g>
	</g>
	<g>
		
			<ellipse transform="matrix(-0.9812 -0.1929 0.1929 -0.9812 198.4616 292.9757)" class="st2" cx="113.5" cy="136.8" rx="36.3" ry="33.4"/>
		<g>
			<path class="st3" d="M123.9,136.5c-1.8,9-10.1,15.2-19.6,15.3c2.5,1.8,5.5,3.2,8.8,3.8c11.3,2.2,22.1-4.4,24.2-14.9
				c2.1-10.4-5.5-20.7-16.8-22.9c-1.6-0.3-3.1-0.4-4.6-0.4C122,121.8,125.4,129.1,123.9,136.5z"/>
			<path class="st4" d="M107.3,134.9c-7.5,3.8-16.5,1.6-22.3-4.8c0.3,2.5,1,4.9,2.2,7.3c5,9.9,16.4,14.2,25.6,9.6
				c9.2-4.6,12.5-16.4,7.6-26.3c-0.9-1.8-2-3.4-3.3-4.9C117.9,123.7,114.3,131.4,107.3,134.9z"/>
		</g>
	</g>
	<g>
		
			<ellipse transform="matrix(-0.9812 -0.1929 0.1929 -0.9812 268.4164 236.7231)" class="st2" cx="145.7" cy="105.3" rx="36.3" ry="33.4"/>
		<g>
			<path class="st3" d="M156.2,104.9c-1.8,9-10.1,15.2-19.6,15.3c2.5,1.8,5.5,3.2,8.8,3.8c11.3,2.2,22.1-4.4,24.2-14.9
				s-5.5-20.7-16.8-22.9c-1.6-0.3-3.1-0.4-4.6-0.4C154.3,90.3,157.6,97.6,156.2,104.9z"/>
			<path class="st4" d="M139.6,103.3c-7.5,3.8-16.5,1.6-22.3-4.8c0.3,2.5,1,4.9,2.2,7.3c5,9.9,16.4,14.2,25.6,9.6
				c9.2-4.6,12.5-16.4,7.6-26.3c-0.9-1.8-2-3.4-3.3-4.9C150.2,92.2,146.5,99.8,139.6,103.3z"/>
		</g>
	</g>
	<path class="st1" d="M266.1,40.4L31.7,146.5c0,0-3.4-0.8-1.5-3.7L256.6,30C256.6,30,264.8,34.2,266.1,40.4z"/>
</g>
<g>
	<path class="st5" d="M39.6,183.9h7.1v12.5h13.2v-12.5H67v32.5h-7.1v-14H46.7v14h-7.1V183.9z"/>
	<path class="st5" d="M87.8,183.1c10.1,0,16,7.5,16,17.2c0,9.4-5.9,16.9-16,16.9c-10.1,0-16-7.5-16-16.9
		C71.9,190.6,77.8,183.1,87.8,183.1z M87.8,211.1c6.4,0,8.8-5.5,8.8-10.9c0-5.7-2.4-11.1-8.8-11.1s-8.8,5.5-8.8,11.1
		C79,205.7,81.4,211.1,87.8,211.1z"/>
	<path class="st5" d="M108.7,183.9h10.1l7.6,22.3h0.1l7.2-22.3h10.1v32.5H137v-23h-0.1l-8,23h-5.5l-8-22.8h-0.1v22.8h-6.7V183.9z"/>
	<path class="st5" d="M150,183.9h24.3v6h-17.2v7h15.7v5.6h-15.7v8h17.5v6H150V183.9z"/>
</g>
<g>
</g>
<g>
</g>
<g>
</g>
<g>
</g>
<g>
</g>
<g>
</g>
<g>
</g>
<g>
</g>
<g>
</g>
<g>
</g>
<g>
</g>
<g>
</g>
<g>
</g>
<g>
</g>
<g>
</g>
</svg>
