<svg xmlns="http://www.w3.org/2000/svg" width="612" height="792" viewBox="0 0 612 792"><style type="text/css">.st0{fill:#231F20;} .st1{fill:none;}</style><path class="st0" d="M325.5 324.3l-13.7-1.8-9.3 10.3-2.5-13.6-12.7-5.6 12.2-6.6 1.4-13.8 10.1 9.5 13.5-2.9-5.9 12.5z"/><path class="st1" d="M298 334.5h32.6v11.8h-32.6z"/><path d="M299.7 334.8v2.9h3.3v-2.9h.9v6.9h-.9v-3.2h-3.3v3.2h-.9v-6.9h.9zM311.3 338.2c0 2.4-1.4 3.6-3.2 3.6-1.8 0-3.1-1.4-3.1-3.5 0-2.2 1.4-3.6 3.2-3.6 1.9 0 3.1 1.5 3.1 3.5zm-5.3.1c0 1.5.8 2.8 2.2 2.8 1.4 0 2.2-1.3 2.2-2.8 0-1.4-.7-2.8-2.2-2.8-1.5 0-2.2 1.3-2.2 2.8zM318.2 338.7c-.1-1-.1-2.1-.1-3-.2.8-.5 1.7-.9 2.6l-1.2 3.3h-.7l-1.1-3.3c-.3-1-.6-1.9-.8-2.7 0 .9-.1 2-.1 3l-.2 2.9h-.8l.5-6.9h1.1l1.2 3.3c.3.8.5 1.6.7 2.3.2-.7.4-1.4.7-2.3l1.2-3.3h1.1l.4 6.9h-.9l-.1-2.8zM324.2 338.5h-2.7v2.5h3v.7h-3.9v-6.9h3.7v.7h-2.8v2.2h2.7v.8z"/></svg>