<?xml version="1.0" encoding="utf-8"?>
<!-- Generator: Adobe Illustrator 18.1.1, SVG Export Plug-In . SVG Version: 6.00 Build 0)  -->
<!DOCTYPE svg PUBLIC "-//W3C//DTD SVG 1.1//EN" "http://www.w3.org/Graphics/SVG/1.1/DTD/svg11.dtd">
<svg version="1.1" id="Layer_1" xmlns="http://www.w3.org/2000/svg" xmlns:xlink="http://www.w3.org/1999/xlink" x="0px" y="0px"
	 width="612px" height="792px" viewBox="0 0 612 792" style="enable-background:new 0 0 612 792;" xml:space="preserve">
<style type="text/css">
	.st0{fill:#231F20;}
	.st1{fill:none;}
</style>
<g>
	<polygon class="st0" points="325.5,324.3 311.8,322.5 302.5,332.8 300,319.2 287.3,313.6 299.5,307 300.9,293.2 311,302.7 
		324.5,299.8 318.6,312.3 	"/>
	<g>
		<rect x="298" y="334.5" class="st1" width="32.6" height="11.8"/>
		<path d="M299.7,334.8v2.9h3.3v-2.9h0.9v6.9H303v-3.2h-3.3v3.2h-0.9v-6.9H299.7z"/>
		<path d="M311.3,338.2c0,2.4-1.4,3.6-3.2,3.6c-1.8,0-3.1-1.4-3.1-3.5c0-2.2,1.4-3.6,3.2-3.6C310.1,334.7,311.3,336.2,311.3,338.2z
			 M306,338.3c0,1.5,0.8,2.8,2.2,2.8c1.4,0,2.2-1.3,2.2-2.8c0-1.4-0.7-2.8-2.2-2.8C306.7,335.5,306,336.8,306,338.3z"/>
		<path d="M318.2,338.7c-0.1-1-0.1-2.1-0.1-3h0c-0.2,0.8-0.5,1.7-0.9,2.6l-1.2,3.3h-0.7l-1.1-3.3c-0.3-1-0.6-1.9-0.8-2.7h0
			c0,0.9-0.1,2-0.1,3l-0.2,2.9h-0.8l0.5-6.9h1.1l1.2,3.3c0.3,0.8,0.5,1.6,0.7,2.3h0c0.2-0.7,0.4-1.4,0.7-2.3l1.2-3.3h1.1l0.4,6.9
			h-0.9L318.2,338.7z"/>
		<path d="M324.2,338.5h-2.7v2.5h3v0.7h-3.9v-6.9h3.7v0.7h-2.8v2.2h2.7V338.5z"/>
	</g>
</g>
<g>
</g>
<g>
</g>
<g>
</g>
<g>
</g>
<g>
</g>
<g>
</g>
<g>
</g>
<g>
</g>
<g>
</g>
<g>
</g>
<g>
</g>
<g>
</g>
<g>
</g>
<g>
</g>
<g>
</g>
</svg>
